<?xml version="1.0" standalone="no"?>
<!DOCTYPE svg PUBLIC "-//W3C//DTD SVG 20010904//EN"
 "http://www.w3.org/TR/2001/REC-SVG-20010904/DTD/svg10.dtd">
<svg version="1.0" xmlns="http://www.w3.org/2000/svg"
 width="498.000000pt" height="235.000000pt" viewBox="0 0 498.000000 235.000000"
 preserveAspectRatio="xMidYMid meet">

<g transform="translate(0.000000,235.000000) scale(0.100000,-0.100000)"
fill="#000000" stroke="none">
<path d="M1432 1881 c-46 -30 -72 -77 -72 -134 0 -148 166 -220 269 -116 63
62 63 156 1 223 -35 37 -42 40 -101 43 -51 3 -70 0 -97 -16z"/>
<path d="M1372 1519 c-96 -19 -147 -53 -300 -201 -213 -205 -310 -257 -460
-244 -41 3 -112 19 -157 34 -120 42 -145 26 -124 -77 23 -113 50 -148 396
-500 192 -196 335 -334 350 -337 13 -4 32 -3 42 2 9 5 166 160 347 344 359
364 374 383 393 510 45 284 -206 525 -487 469z m215 -133 c106 -54 167 -153
168 -271 0 -131 -1 -133 -349 -483 l-310 -312 -299 297 c-274 274 -348 356
-334 369 3 3 22 1 43 -5 125 -31 251 -17 369 42 82 41 119 71 270 217 162 157
211 183 332 175 39 -3 80 -13 110 -29z"/>
<path d="M3668 1261 c-82 -27 -131 -83 -147 -167 -28 -145 57 -254 198 -254
73 0 144 25 139 49 -4 18 -15 18 -78 1 -63 -18 -116 -6 -156 34 -73 73 -65
201 17 270 27 23 40 26 83 24 47 -3 51 -5 60 -35 7 -25 14 -33 32 -33 22 0 24
4 24 45 0 35 -4 47 -21 55 -28 16 -118 22 -151 11z"/>
<path d="M4015 1145 c-5 -2 -27 -6 -47 -10 -28 -4 -38 -11 -38 -25 0 -17 6
-18 68 -13 78 6 102 -7 102 -57 0 -26 -3 -29 -52 -35 -111 -14 -138 -32 -138
-94 0 -42 40 -71 99 -71 27 0 56 7 69 16 21 15 24 15 36 -1 17 -23 89 -17 94
8 3 12 -3 17 -22 17 -26 0 -26 1 -26 83 0 95 -12 147 -38 163 -19 12 -91 25
-107 19z m85 -208 c0 -26 -6 -36 -25 -45 -37 -17 -81 -15 -100 4 -36 36 6 74
83 74 41 0 42 -1 42 -33z"/>
<path d="M4268 1143 c-29 -7 -23 -43 7 -43 l25 0 0 -105 c0 -103 -1 -106 -25
-117 -14 -6 -25 -17 -25 -25 0 -10 19 -13 75 -13 57 0 75 3 75 14 0 8 -11 17
-25 20 -24 6 -25 9 -25 96 0 79 3 92 22 110 29 26 75 27 83 0 11 -34 35 -24
35 15 0 29 -5 37 -26 46 -32 12 -89 -4 -103 -28 -7 -14 -9 -13 -15 4 -6 17
-38 35 -56 32 -3 -1 -13 -3 -22 -6z"/>
<path d="M4620 1128 c-54 -28 -80 -74 -80 -143 0 -93 54 -145 150 -145 57 0
112 23 104 44 -4 10 -13 11 -42 3 -74 -20 -148 15 -154 73 l-3 25 108 3 107 3
0 32 c-1 96 -99 151 -190 105z m117 -50 c13 -12 23 -30 23 -40 0 -16 -9 -18
-80 -18 -72 0 -80 2 -80 19 0 27 47 61 83 61 18 0 41 -9 54 -22z"/>
</g>
</svg>
